G75*
%MOIN*%
%OFA0B0*%
%FSLAX25Y25*%
%IPPOS*%
%LPD*%
%AMOC8*
5,1,8,0,0,1.08239X$1,22.5*
%
%ADD10C,0.00000*%
%ADD11C,0.07400*%
%ADD12R,0.06000X0.03000*%
%ADD13C,0.06000*%
%ADD14C,0.05200*%
%ADD15C,0.00600*%
D10*
X0001000Y0001000D02*
X0001000Y0197850D01*
X0197850Y0197850D01*
X0197850Y0001000D01*
X0001000Y0001000D01*
D11*
X0161000Y0144150D03*
X0161000Y0154150D03*
X0161000Y0164150D03*
X0171000Y0164150D03*
X0171000Y0154150D03*
X0171000Y0144150D03*
D12*
X0110673Y0151650D03*
X0110673Y0156650D03*
X0110673Y0161650D03*
X0110673Y0166650D03*
X0081500Y0166650D03*
X0081500Y0161650D03*
X0081500Y0156650D03*
X0081500Y0151650D03*
D13*
X0029000Y0154150D02*
X0023000Y0154150D01*
X0023000Y0164150D02*
X0029000Y0164150D01*
X0029000Y0174150D02*
X0023000Y0174150D01*
X0023000Y0144150D02*
X0029000Y0144150D01*
D14*
X0096000Y0144150D03*
X0096000Y0154150D03*
X0096000Y0164150D03*
X0096000Y0174150D03*
X0126000Y0174150D03*
X0126000Y0164150D03*
X0126000Y0154150D03*
X0126000Y0144150D03*
D15*
X0126400Y0144350D01*
X0154600Y0144350D01*
X0159400Y0149150D01*
X0166000Y0149150D01*
X0171000Y0154150D01*
X0161200Y0154550D02*
X0161000Y0154150D01*
X0160600Y0144350D02*
X0161000Y0144150D01*
X0163000Y0139550D02*
X0100600Y0139550D01*
X0096000Y0144150D01*
X0088600Y0151550D01*
X0082000Y0151550D01*
X0081500Y0151650D01*
X0081400Y0151550D01*
X0026200Y0151550D01*
X0026000Y0154150D01*
X0026200Y0153950D01*
X0026200Y0151550D01*
X0026200Y0144350D01*
X0026000Y0144150D01*
X0028600Y0161750D02*
X0026000Y0164150D01*
X0026200Y0164150D01*
X0026200Y0173750D01*
X0026000Y0174150D01*
X0026200Y0164150D02*
X0028600Y0161750D01*
X0081400Y0161750D01*
X0081500Y0161650D01*
X0082000Y0161750D01*
X0093400Y0161750D01*
X0095800Y0164150D01*
X0096000Y0164150D01*
X0089200Y0167150D02*
X0095800Y0173750D01*
X0096000Y0174150D01*
X0089200Y0167150D02*
X0082000Y0167150D01*
X0081500Y0166650D01*
X0082000Y0166550D01*
X0081400Y0152150D02*
X0081500Y0151650D01*
X0110673Y0151650D02*
X0110800Y0151550D01*
X0118600Y0151550D01*
X0126000Y0144150D01*
X0126000Y0154150D02*
X0126400Y0154550D01*
X0151000Y0154550D01*
X0160600Y0164150D01*
X0161000Y0164150D01*
X0161200Y0173750D02*
X0170800Y0164150D01*
X0171000Y0164150D01*
X0161200Y0173750D02*
X0126400Y0173750D01*
X0126000Y0174150D01*
X0125800Y0173750D01*
X0119200Y0167150D01*
X0110800Y0167150D01*
X0110673Y0166650D01*
X0110800Y0161750D02*
X0110673Y0161650D01*
X0110800Y0161750D02*
X0123400Y0161750D01*
X0125800Y0164150D01*
X0126000Y0164150D01*
X0124000Y0156350D02*
X0125800Y0154550D01*
X0126000Y0154150D01*
X0124000Y0156350D02*
X0110800Y0156350D01*
X0110673Y0156650D01*
X0163000Y0139550D02*
X0167200Y0143750D01*
X0170800Y0143750D01*
X0171000Y0144150D01*
M02*
